<?xml version="1.0" encoding="utf-8"?>
<!-- Generator: Adobe Illustrator 19.2.1, SVG Export Plug-In . SVG Version: 6.00 Build 0)  -->
<svg version="1.1" id="Группа_1_копия_11"
	 xmlns="http://www.w3.org/2000/svg" xmlns:xlink="http://www.w3.org/1999/xlink" x="0px" y="0px" viewBox="0 0 203.1 28.4"
	 style="enable-background:new 0 0 203.1 28.4;" xml:space="preserve">
<style type="text/css">
	.st0{fill:#FFFFFF;}
	.st1{fill:#E74C3C;}
</style>
<g>
	<g>
		<g>
			<g>
				<path class="st0" d="M159.5,10h-0.6V3.5c0.2-0.1,0.4-0.1,0.7-0.2c0.3-0.1,0.7-0.1,1.1-0.1c0.4,0,0.7,0.1,1,0.2s0.6,0.3,0.8,0.5
					c0.2,0.2,0.4,0.5,0.5,0.8c0.1,0.3,0.2,0.7,0.2,1.1c0,0.4,0,0.7-0.1,1c-0.1,0.3-0.2,0.6-0.4,0.8c-0.2,0.2-0.4,0.4-0.7,0.5
					c-0.3,0.1-0.6,0.2-1,0.2c-0.3,0-0.6,0-0.9-0.1c-0.2-0.1-0.4-0.2-0.5-0.3V10z M159.5,7.4c0.1,0,0.1,0.1,0.2,0.1
					c0.1,0.1,0.2,0.1,0.3,0.1c0.1,0,0.2,0.1,0.4,0.1c0.1,0,0.3,0,0.4,0c0.3,0,0.6-0.1,0.8-0.2c0.2-0.1,0.4-0.3,0.5-0.4
					c0.1-0.2,0.2-0.4,0.3-0.6c0.1-0.2,0.1-0.5,0.1-0.8c0-0.7-0.2-1.2-0.5-1.5s-0.8-0.5-1.3-0.5c-0.3,0-0.6,0-0.7,0
					c-0.2,0-0.3,0.1-0.4,0.1V7.4z"/>
			</g>
			<g>
				<path class="st0" d="M167.3,3.2c0.3,0,0.6,0,0.8,0.1c0.2,0.1,0.4,0.2,0.6,0.4c0.1,0.2,0.2,0.4,0.3,0.6C169,4.5,169,4.8,169,5
					v3.1c-0.1,0-0.2,0-0.3,0.1c-0.1,0-0.3,0-0.4,0.1c-0.2,0-0.3,0-0.5,0.1s-0.4,0-0.6,0c-0.3,0-0.5,0-0.7-0.1
					c-0.2-0.1-0.4-0.1-0.6-0.3c-0.2-0.1-0.3-0.3-0.4-0.5c-0.1-0.2-0.1-0.4-0.1-0.7c0-0.3,0.1-0.5,0.2-0.7c0.1-0.2,0.2-0.4,0.4-0.5
					c0.2-0.1,0.4-0.2,0.7-0.3c0.3-0.1,0.5-0.1,0.8-0.1c0.1,0,0.2,0,0.3,0c0.1,0,0.2,0,0.3,0c0.1,0,0.2,0,0.2,0c0.1,0,0.1,0,0.1,0
					V5.1c0-0.2,0-0.3,0-0.5c0-0.2-0.1-0.3-0.2-0.4c-0.1-0.1-0.2-0.2-0.4-0.3c-0.2-0.1-0.4-0.1-0.6-0.1c-0.4,0-0.6,0-0.8,0.1
					c-0.2,0.1-0.3,0.1-0.4,0.1l-0.1-0.5c0.1-0.1,0.3-0.1,0.5-0.1C166.7,3.2,166.9,3.2,167.3,3.2z M167.3,7.8c0.2,0,0.5,0,0.6,0
					c0.2,0,0.3,0,0.5-0.1V6c-0.1,0-0.2-0.1-0.3-0.1c-0.2,0-0.4-0.1-0.6-0.1c-0.2,0-0.3,0-0.5,0c-0.2,0-0.3,0.1-0.5,0.1
					c-0.1,0.1-0.3,0.2-0.3,0.3c-0.1,0.1-0.1,0.3-0.1,0.5c0,0.2,0,0.3,0.1,0.5c0.1,0.1,0.1,0.2,0.3,0.3c0.1,0.1,0.2,0.1,0.4,0.2
					C166.9,7.8,167.1,7.8,167.3,7.8z"/>
			</g>
			<g>
				<path class="st0" d="M173.6,3.2c0.2,0,0.4,0,0.6,0c0.2,0,0.3,0.1,0.4,0.1l-0.1,0.5c-0.1,0-0.2-0.1-0.3-0.1s-0.4,0-0.6,0
					c-0.3,0-0.5,0-0.6,0.1c-0.2,0-0.3,0.1-0.3,0.1v4.4h-0.6V3.5c0.2-0.1,0.4-0.1,0.7-0.2C172.8,3.2,173.2,3.2,173.6,3.2z"/>
			</g>
			<g>
				<path class="st0" d="M177.3,3.3h2v0.5h-2v2.6c0,0.3,0,0.5,0.1,0.7c0,0.2,0.1,0.3,0.2,0.4c0.1,0.1,0.2,0.2,0.3,0.2
					c0.1,0,0.3,0,0.4,0c0.3,0,0.5,0,0.6-0.1c0.2-0.1,0.3-0.1,0.4-0.2l0.2,0.5c-0.1,0.1-0.2,0.1-0.5,0.2c-0.2,0.1-0.5,0.1-0.7,0.1
					c-0.3,0-0.6,0-0.8-0.1c-0.2-0.1-0.4-0.2-0.5-0.4c-0.1-0.2-0.2-0.4-0.3-0.6c-0.1-0.2-0.1-0.5-0.1-0.9V1.8l0.6-0.1V3.3z"/>
			</g>
			<g>
				<path class="st0" d="M181.7,3.5c0.2-0.1,0.4-0.1,0.8-0.2c0.3-0.1,0.7-0.1,1.2-0.1c0.4,0,0.7,0.1,0.9,0.2
					c0.3,0.1,0.5,0.3,0.6,0.5c0.2,0.2,0.3,0.4,0.3,0.7c0.1,0.3,0.1,0.6,0.1,0.9v2.8H185V5.7c0-0.4,0-0.7-0.1-0.9
					c0-0.2-0.1-0.4-0.2-0.6c-0.1-0.2-0.3-0.3-0.4-0.3c-0.2-0.1-0.4-0.1-0.7-0.1c-0.3,0-0.5,0-0.8,0c-0.2,0-0.4,0.1-0.4,0.1v4.4h-0.6
					V3.5z"/>
			</g>
			<g>
				<path class="st0" d="M197,3.2c0.2,0,0.4,0,0.6,0c0.2,0,0.3,0.1,0.4,0.1l-0.1,0.5c-0.1,0-0.2-0.1-0.3-0.1c-0.2,0-0.4,0-0.6,0
					c-0.3,0-0.5,0-0.6,0.1c-0.2,0-0.3,0.1-0.3,0.1v4.4h-0.6V3.5c0.2-0.1,0.4-0.1,0.7-0.2C196.2,3.2,196.6,3.2,197,3.2z"/>
			</g>
			<g>
				<path class="st0" d="M201.2,7.8c0.4,0,0.7-0.1,0.9-0.2s0.4-0.3,0.4-0.6c0-0.1,0-0.3-0.1-0.3c0-0.1-0.1-0.2-0.2-0.3
					c-0.1-0.1-0.2-0.2-0.4-0.2c-0.2-0.1-0.4-0.2-0.6-0.3c-0.2-0.1-0.4-0.2-0.5-0.2c-0.2-0.1-0.3-0.2-0.4-0.3
					c-0.1-0.1-0.2-0.2-0.3-0.4c-0.1-0.1-0.1-0.3-0.1-0.5c0-0.4,0.2-0.7,0.5-1c0.3-0.2,0.7-0.4,1.3-0.4c0.3,0,0.6,0,0.8,0.1
					c0.2,0.1,0.4,0.1,0.5,0.2L202.7,4c-0.1,0-0.2-0.1-0.4-0.2c-0.2-0.1-0.5-0.1-0.8-0.1c-0.1,0-0.3,0-0.4,0c-0.1,0-0.2,0.1-0.3,0.1
					c-0.1,0.1-0.2,0.1-0.2,0.2s-0.1,0.2-0.1,0.3s0,0.3,0.1,0.3c0.1,0.1,0.1,0.2,0.2,0.3c0.1,0.1,0.2,0.1,0.4,0.2
					c0.1,0.1,0.3,0.1,0.5,0.2c0.2,0.1,0.4,0.2,0.6,0.2c0.2,0.1,0.3,0.2,0.5,0.3c0.1,0.1,0.2,0.2,0.3,0.4c0.1,0.2,0.1,0.4,0.1,0.6
					c0,0.4-0.2,0.8-0.5,1c-0.3,0.2-0.8,0.3-1.4,0.3c-0.4,0-0.8,0-1-0.1c-0.2-0.1-0.4-0.1-0.5-0.2l0.2-0.6c0,0,0.1,0,0.1,0.1
					c0.1,0,0.2,0.1,0.3,0.1c0.1,0,0.2,0.1,0.4,0.1C200.8,7.8,201,7.8,201.2,7.8z"/>
			</g>
		</g>
		<g>
			<g>
				<path class="st0" d="M188.2,4.5h4.3v0.5h-4.3V4.5z M188.2,6.6h4.3v0.5h-4.3V6.6z"/>
			</g>
		</g>
	</g>
	<g>
		<g>
			<path class="st0" d="M66.6,27.1l-2.8-6.4h-9.9L51,27.1h-4.3l12.1-26l12.1,26H66.6z M55.4,17.3h7l-2.6-5.7
				c-0.1-0.4-0.3-0.8-0.5-1.3c-0.2-0.5-0.3-1-0.5-1.6c-0.1,0.5-0.3,1.1-0.4,1.5c-0.2,0.5-0.3,0.9-0.5,1.3L55.4,17.3z"/>
		</g>
		<g>
			<path class="st0" d="M74.6,27.1L82.7,14L75.6,2.1h4.3l3.6,6.1c0.2,0.3,0.6,1,1.1,2l0.3,0.5c0.2-0.4,0.4-0.7,0.6-1.1
				c0.2-0.4,0.5-0.8,0.8-1.3l3.8-6.1h4.2l-7.3,11.8l7.9,13.1h-4.5L86,20l-0.1-0.1c-0.5-0.9-0.9-1.7-1.3-2.4
				c-0.2,0.4-0.4,0.8-0.6,1.2c-0.2,0.4-0.5,0.8-0.7,1.3l-4.4,7.1H74.6z"/>
		</g>
		<g>
			<path class="st0" d="M123.9,14.6c0,1.8-0.3,3.5-1,5c-0.7,1.6-1.6,3-2.9,4.2c-1.3,1.2-2.7,2.2-4.4,2.9s-3.3,1-5.1,1
				c-1.8,0-3.5-0.3-5.1-1c-1.6-0.7-3.1-1.6-4.3-2.8c-1.3-1.2-2.2-2.6-2.9-4.2c-0.7-1.6-1-3.3-1-5.1c0-1.8,0.3-3.5,1-5.1
				c0.7-1.6,1.6-3,2.9-4.3c1.3-1.2,2.7-2.2,4.3-2.8c1.6-0.6,3.3-1,5.1-1c1.8,0,3.5,0.3,5.1,1c1.6,0.6,3.1,1.6,4.3,2.8
				c1.3,1.3,2.2,2.7,2.9,4.3C123.6,11.2,123.9,12.9,123.9,14.6z M119.7,14.6c0-1.3-0.2-2.5-0.7-3.6c-0.5-1.1-1.1-2.2-2-3
				c-0.8-0.9-1.8-1.6-2.9-2c-1.1-0.5-2.3-0.7-3.5-0.7c-1.2,0-2.4,0.2-3.5,0.7c-1.1,0.5-2.1,1.1-3,2c-0.9,0.9-1.5,1.9-2,3
				c-0.5,1.1-0.7,2.3-0.7,3.6c0,1.3,0.2,2.5,0.7,3.6c0.5,1.1,1.1,2.1,2,3c0.9,0.9,1.8,1.6,3,2s2.3,0.7,3.5,0.7
				c1.2,0,2.4-0.2,3.5-0.7c1.1-0.5,2.1-1.1,3-2c0.9-0.9,1.5-1.9,2-3C119.4,17.1,119.7,15.9,119.7,14.6z"/>
		</g>
		<g>
			<path class="st0" d="M127.9,27.1v-26l15.9,15.3c0.4,0.4,0.9,0.9,1.3,1.4c0.4,0.5,0.9,1,1.4,1.7V2.1h3.8v26l-16.2-15.6
				c-0.4-0.4-0.9-0.9-1.3-1.3c-0.4-0.5-0.8-1-1.2-1.5v17.4H127.9z"/>
		</g>
	</g>
	<g>
		<polygon class="st1" points="26.6,0.1 23.2,2.9 34.8,14.4 23.5,25.5 26.3,28.5 40.7,14.2 		"/>
		<polygon class="st1" points="17.2,3 14.4,0 0,14.3 14.1,28.4 17.5,25.7 5.9,14.1 		"/>
	</g>
</g>
</svg>
